<svg width="331" height="180" viewBox="0 0 331 180" fill="none" xmlns="http://www.w3.org/2000/svg">
<rect x="1.16675" y="0.5" width="329" height="179" rx="7.5" fill="#F4F4F5" stroke="#E4E4E7"/>
<path d="M142.333 66.6666L189 113.333M161.957 86.29C161.523 86.7235 161.008 87.0675 160.442 87.3021C159.875 87.5368 159.268 87.6576 158.655 87.6576C158.042 87.6576 157.435 87.5368 156.868 87.3021C156.302 87.0675 155.787 86.7235 155.353 86.29C154.92 85.8564 154.576 85.3416 154.341 84.7751C154.107 84.2086 153.986 83.6015 153.986 82.9883C153.986 82.3751 154.107 81.7679 154.341 81.2014C154.576 80.6349 154.92 80.1202 155.353 79.6866M169.167 93.5L151.667 111M179.667 90L186.667 97V73.6666C186.667 72.4289 186.175 71.242 185.3 70.3668C184.425 69.4916 183.238 69 182 69H158.667M146.043 70.3766C145.608 70.8072 145.263 71.3196 145.027 71.8842C144.79 72.4488 144.668 73.0546 144.667 73.6666V106.333C144.667 107.571 145.158 108.758 146.034 109.633C146.909 110.508 148.096 111 149.333 111H182C183.283 111 184.455 110.487 185.29 109.623" stroke="#09090B" stroke-width="3" stroke-linecap="round" stroke-linejoin="round"/>
</svg>
