<svg width="16" height="16" viewBox="0 0 16 16" fill="none" xmlns="http://www.w3.org/2000/svg">
<g clip-path="url(#clip0_9867_301)">
<path d="M12 6.00001H13.3333C13.687 6.00001 14.0261 6.14049 14.2761 6.39053C14.5262 6.64058 14.6667 6.97972 14.6667 7.33334V14.6667L12 12H8C7.64638 12 7.30724 11.8595 7.05719 11.6095C6.80714 11.3594 6.66667 11.0203 6.66667 10.6667V10M9.33333 6.00001C9.33333 6.35363 9.19286 6.69277 8.94281 6.94282C8.69276 7.19287 8.35362 7.33334 8 7.33334H4L1.33333 10V2.66668C1.33333 1.93334 1.93333 1.33334 2.66667 1.33334H8C8.35362 1.33334 8.69276 1.47382 8.94281 1.72387C9.19286 1.97392 9.33333 2.31305 9.33333 2.66668V6.00001Z" stroke="#FAFAFA" stroke-linecap="round" stroke-linejoin="round"/>
</g>
<defs>
<clipPath id="clip0_9867_301">
<rect width="16" height="16" fill="white"/>
</clipPath>
</defs>
</svg>
