<svg width="16" height="16" viewBox="0 0 16 16" fill="none" xmlns="http://www.w3.org/2000/svg">
<g clip-path="url(#clip0_9867_1085)">
<path d="M12 6.00001H13.3333C13.687 6.00001 14.0261 6.14049 14.2762 6.39053C14.5262 6.64058 14.6667 6.97972 14.6667 7.33334V14.6667L12 12H8.00001C7.64639 12 7.30725 11.8595 7.0572 11.6095C6.80715 11.3594 6.66668 11.0203 6.66668 10.6667V10M9.33334 6.00001C9.33334 6.35363 9.19287 6.69277 8.94282 6.94282C8.69277 7.19287 8.35363 7.33334 8.00001 7.33334H4.00001L1.33334 10V2.66668C1.33334 1.93334 1.93334 1.33334 2.66668 1.33334H8.00001C8.35363 1.33334 8.69277 1.47382 8.94282 1.72387C9.19287 1.97392 9.33334 2.31305 9.33334 2.66668V6.00001Z" stroke="#09090B" stroke-linecap="round" stroke-linejoin="round"/>
</g>
<defs>
<clipPath id="clip0_9867_1085">
<rect width="16" height="16" fill="white"/>
</clipPath>
</defs>
</svg>
